<?xml version="1.0" encoding="UTF-8" standalone="no"?>
<!-- Created with Inkscape (http://www.inkscape.org/) -->

<svg
   xmlns:dc="http://purl.org/dc/elements/1.1/"
   xmlns:cc="http://creativecommons.org/ns#"
   xmlns:rdf="http://www.w3.org/1999/02/22-rdf-syntax-ns#"
   xmlns:svg="http://www.w3.org/2000/svg"
   xmlns="http://www.w3.org/2000/svg"
   xmlns:sodipodi="http://sodipodi.sourceforge.net/DTD/sodipodi-0.dtd"
   xmlns:inkscape="http://www.inkscape.org/namespaces/inkscape"
   id="svg4222"
   version="1.1"
   inkscape:version="0.91 r13725"
   width="779"
   height="1023"
   viewBox="0 0 779 1023"
   sodipodi:docname="neurônio.svg"
   inkscape:export-filename="/home/carreira/Documentos/Templates-geofisica-ON/Latex/Beamer/Imagens/terminal.png"
   inkscape:export-xdpi="300"
   inkscape:export-ydpi="300">
  <metadata
     id="metadata4228">
    <rdf:RDF>
      <cc:Work
         rdf:about="">
        <dc:format>image/svg+xml</dc:format>
        <dc:type
           rdf:resource="http://purl.org/dc/dcmitype/StillImage" />
        <dc:title />
      </cc:Work>
    </rdf:RDF>
  </metadata>
  <defs
     id="defs4226">
    <marker
       inkscape:stockid="Arrow1Lend"
       orient="auto"
       refY="0.0"
       refX="0.0"
       id="marker4509"
       style="overflow:visible;"
       inkscape:isstock="true">
      <path
         id="path4511"
         d="M 0.0,0.0 L 5.0,-5.0 L -12.5,0.0 L 5.0,5.0 L 0.0,0.0 z "
         style="fill-rule:evenodd;stroke:#ff0000;stroke-width:1pt;stroke-opacity:1;fill:#ff0000;fill-opacity:1"
         transform="scale(0.8) rotate(180) translate(12.5,0)" />
    </marker>
    <marker
       inkscape:stockid="Arrow1Lend"
       orient="auto"
       refY="0.0"
       refX="0.0"
       id="marker4481"
       style="overflow:visible;"
       inkscape:isstock="true">
      <path
         id="path4483"
         d="M 0.0,0.0 L 5.0,-5.0 L -12.5,0.0 L 5.0,5.0 L 0.0,0.0 z "
         style="fill-rule:evenodd;stroke:#ff0000;stroke-width:1pt;stroke-opacity:1;fill:#ff0000;fill-opacity:1"
         transform="scale(0.8) rotate(180) translate(12.5,0)" />
    </marker>
    <marker
       inkscape:stockid="Arrow1Lend"
       orient="auto"
       refY="0.0"
       refX="0.0"
       id="marker4457"
       style="overflow:visible;"
       inkscape:isstock="true">
      <path
         id="path4459"
         d="M 0.0,0.0 L 5.0,-5.0 L -12.5,0.0 L 5.0,5.0 L 0.0,0.0 z "
         style="fill-rule:evenodd;stroke:#ff0000;stroke-width:1pt;stroke-opacity:1;fill:#ff0000;fill-opacity:1"
         transform="scale(0.8) rotate(180) translate(12.5,0)" />
    </marker>
    <marker
       inkscape:stockid="Arrow1Lend"
       orient="auto"
       refY="0.0"
       refX="0.0"
       id="marker4434"
       style="overflow:visible;"
       inkscape:isstock="true">
      <path
         id="path4179"
         d="M 0.0,0.0 L 5.0,-5.0 L -12.5,0.0 L 5.0,5.0 L 0.0,0.0 z "
         style="fill-rule:evenodd;stroke:#ff0000;stroke-width:1pt;stroke-opacity:1;fill:#ff0000;fill-opacity:1"
         transform="scale(0.8) rotate(180) translate(12.5,0)" />
    </marker>
    <marker
       inkscape:stockid="Arrow1Lstart"
       orient="auto"
       refY="0.0"
       refX="0.0"
       id="Arrow1Lstart"
       style="overflow:visible"
       inkscape:isstock="true">
      <path
         id="path4176"
         d="M 0.0,0.0 L 5.0,-5.0 L -12.5,0.0 L 5.0,5.0 L 0.0,0.0 z "
         style="fill-rule:evenodd;stroke:#000000;stroke-width:1pt;stroke-opacity:1;fill:#000000;fill-opacity:1"
         transform="scale(0.8) translate(12.5,0)" />
    </marker>
    <marker
       inkscape:stockid="Arrow2Lend"
       orient="auto"
       refY="0.0"
       refX="0.0"
       id="Arrow2Lend"
       style="overflow:visible;"
       inkscape:isstock="true">
      <path
         id="path4416"
         style="fill-rule:evenodd;stroke-width:0.625;stroke-linejoin:round;stroke:#ff0000;stroke-opacity:1;fill:#ff0000;fill-opacity:1"
         d="M 8.7185878,4.0337352 L -2.2072895,0.016013256 L 8.7185884,-4.0017078 C 6.9730900,-1.6296469 6.9831476,1.6157441 8.7185878,4.0337352 z "
         transform="scale(1.1) rotate(180) translate(1,0)" />
    </marker>
    <marker
       inkscape:stockid="Arrow1Lend"
       orient="auto"
       refY="0.0"
       refX="0.0"
       id="Arrow1Lend"
       style="overflow:visible;"
       inkscape:isstock="true">
      <path
         id="path4398"
         d="M 0.0,0.0 L 5.0,-5.0 L -12.5,0.0 L 5.0,5.0 L 0.0,0.0 z "
         style="fill-rule:evenodd;stroke:#ff0000;stroke-width:1pt;stroke-opacity:1;fill:#ff0000;fill-opacity:1"
         transform="scale(0.8) rotate(180) translate(12.5,0)" />
    </marker>
    <marker
       inkscape:stockid="Arrow2Lend"
       orient="auto"
       refY="0"
       refX="0"
       id="Arrow2Lend-4"
       style="overflow:visible"
       inkscape:isstock="true">
      <path
         inkscape:connector-curvature="0"
         id="path4416-8"
         style="fill:#ff0000;fill-opacity:1;fill-rule:evenodd;stroke:#ff0000;stroke-width:0.625;stroke-linejoin:round;stroke-opacity:1"
         d="M 8.7185878,4.0337352 -2.2072895,0.01601326 8.7185884,-4.0017078 c -1.7454984,2.3720609 -1.7354408,5.6174519 -6e-7,8.035443 z"
         transform="matrix(-1.1,0,0,-1.1,-1.1,0)" />
    </marker>
    <marker
       inkscape:stockid="Arrow2Lend"
       orient="auto"
       refY="0"
       refX="0"
       id="Arrow2Lend-4-5"
       style="overflow:visible"
       inkscape:isstock="true">
      <path
         inkscape:connector-curvature="0"
         id="path4416-8-0"
         style="fill:#ff0000;fill-opacity:1;fill-rule:evenodd;stroke:#ff0000;stroke-width:0.625;stroke-linejoin:round;stroke-opacity:1"
         d="M 8.7185878,4.0337352 -2.2072895,0.01601326 8.7185884,-4.0017078 c -1.7454984,2.3720609 -1.7354408,5.6174519 -6e-7,8.035443 z"
         transform="matrix(-1.1,0,0,-1.1,-1.1,0)" />
    </marker>
  </defs>
  <sodipodi:namedview
     pagecolor="#ffffff"
     bordercolor="#666666"
     borderopacity="1"
     objecttolerance="10"
     gridtolerance="10"
     guidetolerance="10"
     inkscape:pageopacity="0"
     inkscape:pageshadow="2"
     inkscape:window-width="1920"
     inkscape:window-height="1056"
     id="namedview4224"
     showgrid="false"
     inkscape:zoom="0.45112415"
     inkscape:cx="639.10241"
     inkscape:cy="222.13965"
     inkscape:window-x="0"
     inkscape:window-y="24"
     inkscape:window-maximized="1"
     inkscape:current-layer="layer2" />
  <g
     id="g4232"
     transform="translate(25.078971,3.1348656)" />
  <g
     inkscape:groupmode="layer"
     id="layer1"
     inkscape:label="Fundo" />
  <g
     inkscape:groupmode="layer"
     id="layer2"
     inkscape:label="Dendritos"
     style="display:inline">
    <g
       id="g4545">
      <g
         transform="matrix(0.72943422,0,0,0.78922648,73.294421,69.15476)"
         id="g4313"
         style="">
        <path
           inkscape:connector-curvature="0"
           id="path4323"
           d="m 383.40051,905.11282 c -0.81027,-0.81026 -1.47321,-2.2027 -1.47321,-3.09429 0,-0.8916 2.52392,-8.45002 5.60871,-16.79651 11.28227,-30.52632 14.44792,-45.05784 15.56485,-71.44848 1.10746,-26.16695 -2.79508,-59.39532 -9.90951,-84.375 -0.95455,-3.35156 -2.19016,-8.09695 -2.74579,-10.5453 -1.31151,-5.77918 -7.04848,-18.34357 -11.79951,-25.84186 -11.42982,-18.03905 -21.5003,-27.54097 -37.5,-35.38282 -12.81191,-6.27945 -19.45674,-7.51345 -32.90157,-6.11009 -77.40623,8.07959 -79.49825,8.23452 -100.69218,7.45709 -47.04543,-1.7257 -78.00666,-5.71377 -105.26184,-13.55864 -19.347755,-5.56886 -32.696161,-12.87925 -45.108408,-24.70406 -24.2955,-23.14567 -28.449619,-55.02369 -11.733112,-90.03802 9.13529,-19.13475 18.72705,-31.50287 49.968009,-64.43138 8.708371,-9.17877 18.280461,-19.89972 21.271331,-23.82434 7.31975,-9.605 29.92652,-53.67872 29.92652,-58.34416 0,-5.38819 -4.56009,-30.44315 -7.1075,-39.05142 -2.57311,-8.69513 -5.34282,-14.48135 -10.84751,-22.6616 -3.03836,-4.51517 -4.36429,-5.61183 -8.78441,-7.26562 -6.28339,-2.35091 -14.40007,-2.53788 -18.48442,-0.42578 -7.778192,4.02226 -26.926133,20.98243 -31.491749,27.89363 -1.717012,2.59913 -5.770612,8.11811 -9.007996,12.2644 -3.237375,4.1463 -8.462325,10.95786 -11.610985,15.13681 -8.607225,11.42364 -11.240831,13.10348 -32.900273,20.9854 -16.39128206,5.96483 -18.827658,6.68982 -18.827658,5.60254 0,-0.46164 8.2135078,-4.89686 18.25224,-9.85605 20.993863,-10.37108 23.108451,-12.18081 34.950885,-29.91196 6.589341,-9.86592 8.057353,-13.06243 5.625,-12.24808 -0.644531,0.21578 -4.96875,1.49749 -9.609375,2.84823 -17.045681,4.96147 -23.569446,7.38248 -29.392691,10.90785 -6.741685,4.08137 -6.701059,4.06731 -6.701059,2.31838 0,-1.88341 7.183142,-8.18484 13.125,-11.51395 5.365369,-3.00612 14.407847,-6.51189 23.708306,-9.19173 5.689088,-1.63925 13.607981,-7.21213 19.168369,-13.48964 5.071116,-5.72513 4.606228,-6.01757 -8.42355,-5.29884 -14.141063,0.78005 -17.138728,1.51176 -22.886794,5.58655 -2.494293,1.76819 -7.066331,4.76712 -10.160081,6.66428 l -5.625,3.44939 -19.21875,-1.61199 c -10.570312,-0.8866 -19.554953,-1.92884 -19.965868,-2.3161 -0.923259,-0.87011 13.2672768,-1.92683 25.9692664,-1.93385 12.6108626,-0.007 15.6848686,-0.98411 21.6054896,-6.86785 7.216387,-7.17145 15.420618,-10.0161 31.699603,-10.99123 11.835571,-0.70896 21.030647,-2.31557 24.174618,-4.22389 5.198963,-3.15567 21.426632,-16.6744 20.947082,-17.45032 -0.78795,-1.27493 -15.35931,-8.27708 -17.193097,-8.26201 -0.800719,0.007 -4.741444,1.06127 -8.757188,2.34375 -15.489019,4.94663 -28.92659,2.77001 -50.025094,-8.10306 -6.111083,-3.14934 -14.275124,-7.04361 -18.142312,-8.65393 -6.8765653,-2.86345 -7.362135,-2.92802 -22.071695,-2.93517 l -15.040444,-0.007 -7.335918,-3.62156 c -6.750627,-3.33263 -27.564965,-18.09185 -30.497734,-21.62562 -1.093023,-1.31701 -1.0257,-1.44054 0.516313,-0.94732 0.975275,0.31194 11.371445,5.24607 23.102599,10.96473 l 21.32937,10.39755 7.26438,-1.10571 c 15.6155174,-2.37683 21.4051753,-1.21431 41.922404,8.41772 17.778516,8.34632 23.411897,10.17782 31.284872,10.17123 7.336172,-0.007 10.517222,-0.79016 23.20125,-5.71831 9.290962,-3.60984 14.108203,-7.01941 13.308215,-9.41936 -0.271181,-0.81356 -10.921584,-2.9672 -32.264615,-6.5243 L 33.536493,251.48397 5.5930443,240.52837 C -9.7758526,234.50281 -23.356672,229.1143 -24.586553,228.55393 c -2.571224,-1.17153 -3.055687,-2.97202 -0.595523,-2.21323 0.902344,0.27831 14.663509,4.32334 30.5803669,8.98897 27.5916111,8.08777 29.7457701,8.56937 46.2424051,10.3384 9.516469,1.02051 18.091809,1.85547 19.056328,1.85547 1.404028,0 0.612741,-1.59953 -3.968887,-8.02279 -6.962485,-9.76112 -10.195444,-12.55081 -20.202535,-17.43258 -6.925284,-3.37836 -30.350357,-10.154 -35.145178,-10.16565 -0.902344,-0.002 -1.640625,-0.42586 -1.640625,-0.94148 0,-1.22648 3.378997,-1.15191 19.21875,0.42414 13.830216,1.3761 17.1621,2.25168 26.493328,6.96207 6.996638,3.53189 11.459691,7.34101 16.337213,13.94347 5.084615,6.88279 9.416512,9.74225 22.425234,14.80279 8.749276,3.40355 12.832656,4.47263 18.591016,4.86732 l 7.37915,0.50577 1.44467,-2.79367 c 2.59718,-5.02241 2.92435,-11.66845 0.80975,-16.44888 -2.72389,-6.15778 -12.04188,-18.15201 -15.0054,-19.3151 -1.3956,-0.54773 -8.443711,-2.75333 -15.662461,-4.90134 -7.21875,-2.148 -17.132812,-5.90753 -22.03125,-8.3545 -4.898437,-2.44697 -13.96875,-6.26577 -20.15625,-8.48621 -6.1875,-2.22044 -12.515625,-4.8943 -14.0625,-5.94192 -9.596866,-6.49944 -24.193278,-17.82452 -23.339903,-18.10897 0.557451,-0.18582 7.302603,3.00851 14.989226,7.09851 12.206896,6.49521 17.632939,8.64564 42.872858,16.99114 15.893447,5.25512 29.142432,9.30952 29.442169,9.00978 0.299747,-0.29975 -0.636797,-3.32564 -2.081212,-6.72422 -3.221438,-7.57976 -9.79276,-14.96829 -18.701082,-21.02673 -9.223415,-6.27275 -12.02505,-9.55391 -23.217159,-27.19095 -21.840422,-34.41715 -19.621228,-33.01834 12.295997,7.75044 3.634443,4.64238 7.2588,7.84404 13.511231,11.93546 4.829794,3.16048 8.898234,5.23749 9.358191,4.77753 1.15019,-1.15019 -1.711538,-11.66408 -4.638591,-17.04206 -1.345444,-2.47202 -6.023138,-8.55442 -10.394878,-13.51646 -4.371741,-4.96204 -7.707638,-9.26287 -7.413103,-9.5574 0.867628,-0.86764 12.9957,6.74385 18.197137,11.42039 2.638838,2.37254 5.631019,5.66645 6.649294,7.31978 1.953037,3.17108 4.600603,12.67702 7.626036,27.3809 3.08332,14.98516 9.09685,24.42674 20.15629,31.64646 l 5.625,3.67206 9.375,-0.39213 c 9.79415,-0.40966 17.34375,-2.5854 17.34375,-4.99832 0,-0.70112 -5.52899,-8.49976 -12.28665,-17.33031 -6.75766,-8.83056 -17.76877,-24.7697 -24.46913,-35.42032 -6.70036,-10.65062 -13.30027,-20.57008 -14.66647,-22.04324 -7.906417,-8.52538 -28.243754,-22.87597 -45.374626,-32.017577 -6.574219,-3.508224 -11.953125,-6.762881 -11.953125,-7.232572 0,-1.114664 1.840088,-0.525179 16.40625,5.255867 13.630875,5.409842 26.882953,13.298842 39.388691,23.448192 7.53455,6.11486 9.37459,8.35612 22.40226,27.28706 13.2231,19.21493 33.51357,45.38655 35.75296,46.1159 1.38884,0.45232 4.185,-7.87723 4.17948,-12.45031 -0.0121,-9.97542 -7.23013,-28.72513 -15.54294,-40.3745 -2.31782,-3.24813 -7.89056,-9.39554 -12.38386,-13.66089 C 109.84532,104.72 107.00976,100.81983 95.789587,74.824325 89.630549,60.554728 87.687346,54.309711 90.780252,58.725446 c 0.744122,1.062382 4.811016,8.011721 9.037538,15.442974 4.22653,7.431254 9.79747,16.643645 12.37987,20.471981 5.08208,7.534069 17.94797,21.533059 18.9099,20.575299 0.32542,-0.324 0.0927,-2.57068 -0.51716,-4.99263 -1.57077,-6.2381 -0.52985,-16.770458 2.96919,-30.04328 2.52802,-9.589495 2.97355,-12.945098 3.01847,-22.734375 0.029,-6.316406 0.37073,-11.484375 0.75945,-11.484375 1.328,0 3.65229,10.122713 3.65229,15.906414 0,3.175749 -1.08451,12.813944 -2.41002,21.418213 -2.45567,15.940495 -2.49987,22.763953 -0.18156,28.030773 0.63268,1.43734 5.53138,9.57429 10.886,18.0821 25.03826,39.78262 25.76046,41.37197 25.85824,56.90553 0.0364,5.7746 0.48796,10.91456 1.00359,11.42212 2.23273,2.1978 12.2457,7.60599 14.00735,7.56562 3.16484,-0.0726 12.8132,-9.96912 21.71192,-22.27053 20.03066,-27.68995 22.00848,-30.88336 22.46934,-36.27899 0.77325,-9.05312 0.43996,-17.3754 -0.86676,-21.64303 -1.00866,-3.29419 -1.57577,-11.26339 -1.99014,-27.96642 -0.66693,-26.882946 -1.66238,-33.132537 -7.0896,-44.509705 -2.06459,-4.328035 -3.50793,-8.115027 -3.20741,-8.415538 0.81354,-0.813547 6.70798,6.289744 9.29011,11.195379 2.96634,5.635533 4.8488,13.284006 6.09816,24.776814 1.75903,16.181424 4.04322,32.76424 4.68402,34.00523 0.39079,0.75681 1.98993,-0.95638 4.37545,-4.6875 5.24824,-8.20864 19.40936,-25.611082 19.82534,-24.363148 0.1891,0.567304 -3.36648,7.278352 -7.90129,14.913438 -8.81466,14.84091 -14.29366,27.59478 -14.34414,33.3899 -0.0171,1.96373 0.42681,6.52176 0.98649,10.12895 l 1.01759,6.55852 -3.98581,8.38722 c -2.19219,4.61296 -3.74443,8.62858 -3.44942,8.92359 0.29501,0.29501 3.21274,-1.36518 6.48385,-3.68931 22.41766,-15.92784 23.66116,-16.64702 30.18154,-17.45566 8.04373,-0.99756 13.20435,-4.25272 19.06903,-12.02815 4.30803,-5.71161 7.388,-8.39196 8.43734,-7.34262 0.90634,0.90635 -6.65186,13.71896 -10.05065,17.0378 -2.41123,2.35451 -6.04573,4.25228 -12.69062,6.62648 -5.12143,1.82988 -10.7416,4.45614 -12.48928,5.83615 -4.2085,3.32314 -8.26778,6.39568 -14.46207,10.94661 -14.60188,10.72794 -24.08601,18.61394 -28.28136,23.51576 -4.3401,5.07096 -4.75103,5.99208 -5.80064,13.00216 -1.08937,7.27567 -1.04671,7.71801 1.19686,12.41029 2.53052,5.2924 10.35789,13.09631 15.65865,15.61168 2.01613,0.95672 5.6408,1.55386 9.43196,1.55386 5.78804,0 6.57875,-0.27503 13.17981,-4.58424 3.86229,-2.52134 10.30893,-5.9472 14.32586,-7.61304 11.4208,-4.73626 13.78485,-6.14308 20.0391,-11.92506 3.94358,-3.6458 8.9565,-10.14558 15.37875,-19.94016 12.35365,-18.84057 17.58161,-23.77855 37.9869,-35.87994 14.26663,-8.46086 18.73581,-10.07191 14.3856,-5.18575 -0.95526,1.07294 -7.05017,5.45263 -13.54424,9.73263 -15.69037,10.34093 -22.5122,17.68375 -33.08561,35.61237 -4.44165,7.53141 -8.07573,13.86835 -8.07573,14.08209 0,0.94268 3.42594,0.0789 18.53568,-4.67345 8.85193,-2.78413 17.58278,-5.98191 19.4019,-7.10618 1.8191,-1.12427 6.54198,-5.59733 10.49526,-9.94013 3.9533,-4.3428 7.38528,-7.69852 7.62663,-7.45716 1.01111,1.01111 -8.11118,15.10716 -11.99697,18.53807 -4.52907,3.99891 -12.58294,8.41196 -20.15205,11.04214 -2.58043,0.89668 -13.97295,5.50224 -25.3167,10.2346 -20.62772,8.60542 -35.63756,16.92145 -43.77448,24.25274 -7.77635,7.00643 -11.03711,20.92786 -6.06616,25.89881 2.19348,2.19348 9.40128,4.28666 14.76095,4.28666 1.53824,0 12.38075,-1.74517 24.09449,-3.87814 16.06599,-2.92548 24.9824,-4.04063 36.2977,-4.53965 10.23889,-0.45155 16.08575,-1.12702 18.42066,-2.1281 1.88138,-0.80663 8.20002,-5.09751 14.04143,-9.53529 5.92134,-4.49851 12.85042,-8.90294 15.65983,-9.95407 10.27962,-3.8461 27.17552,-4.52605 40.94058,-1.6476 5.47627,1.14516 15.76093,6.07664 15.055,7.21885 -0.26696,0.43195 -3.34167,-0.0389 -6.83269,-1.04627 -8.11402,-2.34143 -25.52635,-3.21307 -34.94106,-1.74911 -9.37385,1.45761 -14.75475,4.1052 -24.84375,12.22397 -14.19304,11.42136 -16.05726,12.2422 -33.17536,14.60765 -5.98793,0.82743 -11.47452,1.69384 -12.19243,1.92537 -1.29699,0.41826 13.0605,10.20823 29.43029,20.06769 4.64062,2.79504 10.54687,6.68696 13.125,8.64872 2.57812,1.96176 6.58594,4.1538 8.90625,4.8712 11.1674,3.4528 15.65405,6.79935 7.95179,5.9312 -2.61995,-0.2953 -8.09214,-2.28239 -13.03109,-4.7319 -4.68294,-2.32254 -13.87939,-6.77417 -20.43654,-9.8925 -6.55714,-3.11833 -14.36183,-7.23336 -17.34375,-9.1445 -8.42031,-5.3967 -16.2908,-8.80846 -20.32184,-8.80928 -6.41968,-9.4e-4 -43.94657,7.55589 -47.1186,9.48878 -5.3492,3.25956 -9.69997,8.89966 -9.69997,12.57454 0,4.24571 2.22806,9.55417 5.44036,12.96192 2.8905,3.0664 16.59459,13.72402 17.64699,13.72402 0.38393,0 1.58287,0.83123 2.6643,1.84719 1.08144,1.01595 9.968,5.25983 19.74792,9.43082 34.28229,14.62091 44.64578,22.02685 46.95079,33.55194 0.83165,4.15821 -0.59097,3.67024 -3.55787,-1.22038 -2.97503,-4.90404 -11.60185,-11.49985 -20.87369,-15.95942 -7.64684,-3.67799 -24.94676,-10.09719 -25.55987,-9.48409 -0.22653,0.22655 0.65365,2.03264 1.95597,4.01354 1.30231,1.98091 3.93974,7.39853 5.86094,12.03915 3.03568,7.33266 4.35352,9.26378 10.0641,14.74765 3.61405,3.47058 6.25665,6.62451 5.87243,7.00873 -1.26463,1.26464 -10.90524,-4.59976 -14.75912,-8.97799 -2.07873,-2.36156 -6.13887,-8.31218 -9.02253,-13.22357 -9.01409,-15.35265 -22.03812,-26.82774 -29.61511,-26.093 -3.43508,0.3331 -3.38273,-0.14967 -1.5562,14.35068 1.11038,8.81505 1.0368,10.21493 -1.23185,23.4375 -2.04051,11.89284 -2.51229,18.29333 -3.05783,41.48438 -0.35479,15.08203 -0.97634,27.42187 -1.38125,27.42187 -0.88466,0 -1.23062,-2.03684 -4.14007,-24.375 -2.42805,-18.64197 -2.33695,-22.51336 0.93833,-39.87479 2.16659,-11.48458 1.45591,-25.16141 -1.89802,-36.52659 -1.3687,-4.63796 -3.16751,-9.18292 -3.99739,-10.09992 -2.44181,-2.69817 -10.9336,-4.72193 -16.75927,-3.99406 -6.93471,0.86644 -17.09234,6.15948 -23.88,12.44366 -3.10098,2.87097 -9.24427,10.24034 -13.65173,16.37637 -6.47688,9.01705 -8.78963,13.20195 -12.06061,21.82349 -10.27128,27.07282 -15.99986,38.63999 -25.15521,50.79356 -9.30345,12.35016 -19.60141,21.98031 -32.88304,30.75062 -6.05445,3.99796 -13.39864,9.24726 -16.32041,11.6651 -2.92177,2.41784 -8.23504,6.59824 -11.807264,9.28977 -9.363009,7.05466 -26.938359,27.56777 -36.64335,42.76837 -21.70185,33.99088 -18.352425,70.13145 8.478281,91.48128 16.813228,13.3787 43.907933,23.80467 70.285023,27.0455 4.64062,0.57017 35.64844,1.46464 68.90625,1.9877 l 60.46875,0.95102 15,-2.39398 c 23.67939,-3.77919 31.38749,-4.39442 40.12363,-3.20251 17.10004,2.33305 31.99306,9.79915 45.49754,22.80862 6.81733,6.56745 15.79268,18.60053 18.58199,24.91257 1.267,2.86713 3.43355,7.11141 4.81455,9.43172 3.29064,5.52881 7.26957,14.76116 9.98115,23.1593 2.59586,8.03975 6.08268,12.70626 13.9309,18.64413 9.93578,7.51727 19.09237,10.47361 26.96641,8.70651 5.81098,-1.30411 20.31924,-8.70625 31.4522,-16.04697 17.03071,-11.22952 33.9339,-17.74398 49.12038,-18.93093 25.97809,-2.03041 30.80516,-4.20149 41.4296,-18.63392 2.72967,-3.70803 17.12961,-22.69896 31.99987,-42.20208 14.87027,-19.50311 27.60207,-36.79998 28.29291,-38.4375 0.69083,-1.63751 2.73755,-4.40396 4.54827,-6.14767 4.40999,-4.24679 7.07883,-10.80671 8.12366,-19.96769 1.75496,-15.38735 4.20205,-20.79698 36.92477,-81.62755 17.48273,-32.49989 18.67998,-34.45313 21.11813,-34.45313 2.81425,0 5.68779,2.51548 5.68779,4.97906 0,0.85259 -8.86276,18.02457 -19.69503,38.15993 -22.52885,41.87734 -29.09339,54.76909 -31.26127,61.39226 -1.69406,5.17556 -3.68051,18.97419 -2.9108,20.21959 0.53567,0.86674 17.32573,-4.71509 23.36516,-7.76771 2.08075,-1.05171 8.21288,-6.24061 13.62694,-11.53088 10.3549,-10.11814 14.33218,-12.69457 23.13712,-14.98796 21.66419,-5.64282 68.84214,7.11157 98.54936,26.64245 9.58118,6.29911 22.5153,18.24597 31.55158,29.14326 8.26705,9.96964 52.91378,68.1145 54.72447,71.26939 2.05669,3.58363 0.15534,7.48061 -3.64987,7.48061 -2.13544,0 -4.18922,-1.97435 -12.43435,-11.95312 -5.43208,-6.57422 -17.34119,-22.28907 -26.46471,-34.92188 -17.62949,-24.41051 -25.17723,-32.97829 -37.81083,-42.92075 -21.04082,-16.55882 -51.47853,-30.36612 -75.95692,-34.45595 -11.26827,-1.8827 -24.80521,-1.49117 -30.48425,0.88168 -2.06386,0.86234 -7.36326,5.35462 -12.59654,10.67805 -10.43063,10.61034 -14.32489,12.92164 -34.25078,20.32839 -13.76662,5.11726 -19.12691,7.91511 -22.82082,11.91154 -2.986,3.23055 -15.12119,19.92042 -14.75895,20.29841 0.16609,0.17332 3.55121,-0.40776 7.5225,-1.29129 8.42169,-1.87365 14.1983,-1.50656 22.93049,1.45716 5.05738,1.7165 7.28956,1.96807 13.125,1.4792 15.88943,-1.33115 26.37082,-4.94132 35.7802,-12.32402 2.9213,-2.29208 6.1811,-4.16742 7.24401,-4.16742 2.86949,0 5.31792,4.18565 4.06148,6.94321 -2.42462,5.32147 -16.93447,13.86768 -28.80444,16.96563 -3.09375,0.80744 -9.94738,1.96067 -15.23031,2.56274 -9.58325,1.09215 -9.63012,1.08751 -20.42388,-2.02448 -12.60593,-3.63445 -14.68663,-3.52317 -24.47295,1.30882 -5.65858,2.79392 -8.66007,5.33897 -19.47393,16.51247 -7.03136,7.2652 -15.39373,16.65273 -18.58306,20.86116 -3.18932,4.20843 -8.48384,10.91227 -11.76559,14.8974 -3.28175,3.98514 -5.69254,7.68948 -5.35732,8.23189 1.0719,1.73436 6.88537,-0.0732 19.58358,-6.08902 6.75728,-3.20129 15.45002,-6.58414 19.31721,-7.51746 12.04288,-2.90645 19.72886,-5.91198 29.48783,-11.53092 5.18013,-2.98257 10.5236,-5.89752 11.87437,-6.47764 4.11945,-1.7692 10.7482,-2.41827 12.90558,-1.26368 4.04225,2.16334 1.44952,9.43238 -3.36435,9.43238 -3.66119,0 -9.74294,2.77469 -18.17311,8.29115 -7.18289,4.70028 -10.03981,5.94699 -18.72809,8.1726 -5.63873,1.44443 -10.25223,3.11219 -10.25223,3.70613 0,0.59395 0.49122,3.52585 1.0916,6.51535 0.81723,4.06934 1.88656,6.23044 4.2546,8.59846 5.61703,5.61704 21.07706,12.15123 25.15935,10.63363 1.05149,-0.39089 3.47736,-2.6213 5.39085,-4.95644 1.91347,-2.33516 4.97681,-5.1714 6.8074,-6.30277 8.68735,-5.36907 30.48962,2.7418 28.04807,10.43445 -0.3311,1.0432 -1.59608,2.34967 -2.81106,2.90325 -1.81839,0.82852 -3.08893,0.54635 -7.18431,-1.59556 -9.98375,-5.22154 -12.52972,-4.92801 -17.75595,2.0471 -4.88389,6.51821 -8.10674,8.07887 -15.78707,7.64489 -5.31784,-0.30048 -7.81892,-1.06347 -14.2534,-4.34819 -9.65087,-4.92667 -16.25232,-9.696 -18.47144,-13.34505 -0.93071,-1.53043 -2.21711,-5.12817 -2.85867,-7.99497 -0.64157,-2.86679 -1.75224,-5.43713 -2.46817,-5.71186 -0.71594,-0.27473 -2.7333,0.38527 -4.48304,1.46666 -1.74973,1.0814 -4.02761,1.96617 -5.06196,1.96617 -1.03435,0 -3.72674,1.03112 -5.9831,2.29137 -3.13274,1.74975 -6.65084,2.55785 -14.8837,3.41875 -5.92969,0.62005 -11.32321,1.40686 -11.9856,1.74844 -0.78844,0.40659 0.39245,1.65577 3.41943,3.61719 11.39628,7.38453 16.51518,13.81612 20.28492,25.48675 0.91604,2.83594 2.62412,7.07163 3.79573,9.41264 2.77327,5.54125 9.90952,12.14986 13.11996,12.14986 3.87881,0 6.05306,1.6434 6.05306,4.57519 0,4.944 -5.36774,7.59089 -10.79512,5.32319 -8.91961,-3.72686 -15.56518,-12.1691 -21.90384,-27.8257 -2.16636,-5.35091 -4.44923,-10.38717 -5.07306,-11.19167 -2.31191,-2.98153 -16.62201,-13.18148 -21.91369,-15.61965 -9.41515,-4.33807 -19.58291,-2.89453 -47.65804,6.76608 -5.62761,1.93646 -16.40324,7.26131 -16.405,8.10663 -0.002,0.77409 2.51175,1.74071 4.52855,1.74167 3.42018,0.002 13.03183,5.50187 16.31286,9.33502 7.13696,8.33792 9.97319,15.50346 18.01274,45.50799 3.82692,14.28253 7.90626,21.93818 16.15949,30.32638 8.74117,8.88412 9.31927,9.89245 7.37388,12.86149 -2.8589,4.36322 -5.71217,3.15159 -15.05027,-6.39099 -11.95164,-12.21338 -14.21177,-16.93107 -22.4275,-46.81423 -2.33175,-8.48131 -5.12046,-17.41198 -6.19711,-19.84593 -4.33891,-9.80884 -12.71837,-15.57929 -22.64793,-15.59631 -3.15411,-0.006 -10.638,1.37925 -18.28125,3.38236 -20.57268,5.39162 -27.69623,4.68 -42.47221,-4.24284 -3.35156,-2.02393 -6.23124,-3.54239 -6.39929,-3.37435 -0.16806,0.16803 0.36323,4.66801 1.18063,9.99997 4.34146,28.31976 4.33904,62.33182 -0.007,85.9849 -2.79871,15.23486 -17.53256,58.43412 -20.74334,60.81893 -2.13823,1.58816 -4.53359,1.47375 -6.30868,-0.30135 z"
           style="fill:#000000" />
      </g>
      <path
         sodipodi:nodetypes="csssssssssssscc"
         inkscape:connector-curvature="0"
         id="path4350"
         d="m 167.79072,315.15858 c -3.36683,-8.52024 -8.89225,-20.11979 -8.1472,-29.65543 0.88508,-11.32771 6.27288,-27.54345 12.61122,-36.90705 4.87293,-7.19875 12.04939,-13.04145 20.06737,-16.20276 7.88872,-3.11033 13.32631,-2.86889 28.31601,3.34343 8.65579,3.58729 15.0892,13.71929 19.37034,22.16918 3.98139,7.85826 7.06364,13.65305 7.41315,22.48368 0.3186,8.04894 -0.46718,16.00894 -2.52223,23.78922 -2.29763,8.69865 -7.90508,16.95671 -12.61125,23.78925 -5.07825,7.37275 -12.63321,11.08254 -18.37634,17.93343 -6.57036,7.83766 -9.04525,18.69932 -13.36035,28.01366 -3.46088,7.47041 -9.2319,22.76785 -17.34797,22.31489 -9.83393,-0.54883 -1.4945,-15.72316 -0.94406,-25.67694 0.56206,-10.1638 -3.68034,-23.44402 -5.32267,-33.15825 -5.13374,-10.35817 -5.82589,-14.20126 -9.14602,-22.23631 z"
         style="fill:#a7a7a7;fill-opacity:1;fill-rule:evenodd;stroke:none;stroke-width:1px;stroke-linecap:butt;stroke-linejoin:miter;stroke-opacity:1" />
      <ellipse
         transform="matrix(0.98694412,0.16106304,-0.16106304,0.98694412,0,0)"
         ry="18.84182"
         rx="12.468852"
         cy="253.11189"
         cx="250.9444"
         id="path4348"
         style="fill:#fffcff;fill-opacity:1;stroke:none;stroke-width:1;stroke-miterlimit:4;stroke-dasharray:none;stroke-dashoffset:0;stroke-opacity:1" />
      <ellipse
         ry="10.806338"
         rx="7.4813108"
         cy="438.07233"
         cx="583.81934"
         id="path4369"
         style="fill:#000000;fill-opacity:1;stroke:none;stroke-width:1;stroke-miterlimit:4;stroke-dasharray:none;stroke-dashoffset:0;stroke-opacity:1" />
      <ellipse
         ry="5.8187976"
         rx="6.3729687"
         cy="615.96124"
         cx="721.25378"
         id="path4371"
         style="fill:#000000;fill-opacity:1;stroke:none;stroke-width:1;stroke-miterlimit:4;stroke-dasharray:none;stroke-dashoffset:0;stroke-opacity:1" />
      <ellipse
         ry="8.0354824"
         rx="6.650054"
         cy="563.315"
         cx="593.51733"
         id="path4373"
         style="fill:#000000;fill-opacity:1;stroke:none;stroke-width:1;stroke-miterlimit:4;stroke-dasharray:none;stroke-dashoffset:0;stroke-opacity:1" />
      <ellipse
         ry="7.7583966"
         rx="7.4813108"
         cy="606.26324"
         cx="557.21912"
         id="path4375"
         style="fill:#000000;fill-opacity:1;stroke:none;stroke-width:1;stroke-miterlimit:4;stroke-dasharray:none;stroke-dashoffset:0;stroke-opacity:1" />
      <circle
         r="7.7583966"
         cy="642.83856"
         cx="569.13379"
         id="path4379"
         style="fill:#000000;fill-opacity:1;stroke:none;stroke-width:1;stroke-miterlimit:4;stroke-dasharray:none;stroke-dashoffset:0;stroke-opacity:1" />
      <circle
         r="7.7583966"
         cy="683.29309"
         cx="514.27087"
         id="path4381"
         style="fill:#000000;fill-opacity:1;stroke:none;stroke-width:1;stroke-miterlimit:4;stroke-dasharray:none;stroke-dashoffset:0;stroke-opacity:1" />
      <circle
         r="6.0958829"
         cy="731.78308"
         cx="471.0455"
         id="path4383"
         style="fill:#000000;fill-opacity:1;stroke:none;stroke-width:1;stroke-miterlimit:4;stroke-dasharray:none;stroke-dashoffset:0;stroke-opacity:1" />
      <ellipse
         ry="5.8187976"
         rx="4.9875407"
         cy="783.87512"
         cx="354.39246"
         id="path4385"
         style="fill:#000000;fill-opacity:1;stroke:none;stroke-width:1;stroke-miterlimit:4;stroke-dasharray:none;stroke-dashoffset:0;stroke-opacity:1" />
      <path
         sodipodi:nodetypes="ccc"
         inkscape:connector-curvature="0"
         id="path4387"
         d="m 266.6869,137.0857 c 11.54123,-2.51687 21.70443,-4.56733 32.72592,-2.80616 11.63252,7.30371 31.15277,41.84528 36.78713,49.88076"
         style="fill:none;fill-rule:evenodd;stroke:#ff0200;stroke-width:2;stroke-linecap:butt;stroke-linejoin:miter;stroke-miterlimit:4;stroke-dasharray:none;stroke-opacity:1" />
      <path
         sodipodi:nodetypes="csascc"
         inkscape:connector-curvature="0"
         id="path4389"
         d="m 299.59138,134.27583 c 0,0 -3.71563,-20.83714 -2.44912,-32.53446 0.17116,-1.58076 1.14899,-5.334874 3.0369,-7.07197 1.74412,-1.604781 5.21317,-1.982614 6.74378,-2.253185 156.14089,-27.601526 473.03688,1.763362 473.03688,1.763362 l 0,0"
         style="fill:none;fill-rule:evenodd;stroke:#ff0000;stroke-width:2;stroke-linecap:butt;stroke-linejoin:miter;stroke-miterlimit:4;stroke-dasharray:none;stroke-opacity:1;marker-end:url(#Arrow2Lend-4)" />
      <text
         sodipodi:linespacing="125%"
         id="text4655"
         y="97.643143"
         x="790.83551"
         style="font-style:normal;font-variant:normal;font-weight:normal;font-stretch:normal;font-size:17.5px;line-height:125%;font-family:'DejaVu Serif';-inkscape-font-specification:'DejaVu Serif';letter-spacing:0px;word-spacing:0px;fill:#000000;fill-opacity:1;stroke:none;stroke-width:1px;stroke-linecap:butt;stroke-linejoin:miter;stroke-opacity:1"
         xml:space="preserve"><tspan
           style="font-style:normal;font-variant:normal;font-weight:normal;font-stretch:normal;font-family:'Latin Modern Roman';-inkscape-font-specification:'Latin Modern Roman, ';fill:#ff0000;font-size:40px"
           y="97.643143"
           x="790.83551"
           id="tspan4657"
           sodipodi:role="line">Dendritos</tspan></text>
      <path
         sodipodi:nodetypes="ccc"
         inkscape:connector-curvature="0"
         id="path4389-1"
         d="m 206.38142,291.36384 c 90.33867,-42.22315 500.57406,-9.89198 623.34461,0.91242 l 0,0"
         style="display:inline;fill:none;fill-rule:evenodd;stroke:#ff0000;stroke-width:2;stroke-linecap:butt;stroke-linejoin:miter;stroke-miterlimit:4;stroke-dasharray:none;stroke-opacity:1;marker-end:url(#Arrow2Lend-4-5)" />
      <text
         sodipodi:linespacing="125%"
         id="text4655-5"
         y="308.4791"
         x="848.85443"
         style="font-style:normal;font-variant:normal;font-weight:normal;font-stretch:normal;font-size:17.5px;line-height:125%;font-family:'DejaVu Serif';-inkscape-font-specification:'DejaVu Serif';letter-spacing:0px;word-spacing:0px;display:inline;fill:#000000;fill-opacity:1;stroke:none;stroke-width:1px;stroke-linecap:butt;stroke-linejoin:miter;stroke-opacity:1"
         xml:space="preserve"><tspan
           style="font-style:normal;font-variant:normal;font-weight:normal;font-stretch:normal;font-size:40px;font-family:'Latin Modern Roman';-inkscape-font-specification:'Latin Modern Roman, ';fill:#ff0000"
           y="308.4791"
           x="848.85443"
           id="tspan4657-9"
           sodipodi:role="line">Núcleo</tspan></text>
      <path
         sodipodi:nodetypes="csc"
         inkscape:connector-curvature="0"
         id="path4170"
         d="m 192.01052,341.16673 c 0,0 -37.36006,58.37549 -67.39961,71.31819 -29.03002,12.50774 -94.829687,0 -94.829687,0"
         style="fill:none;fill-rule:evenodd;stroke:#ff0000;stroke-width:2;stroke-linecap:butt;stroke-linejoin:miter;stroke-opacity:1;marker-end:url(#marker4434);stroke-miterlimit:4;stroke-dasharray:none" />
      <text
         sodipodi:linespacing="125%"
         id="text4655-5-3"
         y="418.02759"
         x="-78.42421"
         style="font-style:normal;font-variant:normal;font-weight:normal;font-stretch:normal;font-size:17.5px;line-height:125%;font-family:'DejaVu Serif';-inkscape-font-specification:'DejaVu Serif';letter-spacing:0px;word-spacing:0px;display:inline;fill:#000000;fill-opacity:1;stroke:none;stroke-width:1px;stroke-linecap:butt;stroke-linejoin:miter;stroke-opacity:1"
         xml:space="preserve"><tspan
           style="font-style:normal;font-variant:normal;font-weight:normal;font-stretch:normal;font-size:40px;font-family:'Latin Modern Roman';-inkscape-font-specification:'Latin Modern Roman, ';fill:#ff0000"
           y="418.02759"
           x="-78.42421"
           id="tspan4657-9-6"
           sodipodi:role="line">Soma</tspan></text>
      <path
         sodipodi:nodetypes="csc"
         inkscape:connector-curvature="0"
         id="path4455"
         d="m 310.33586,583.54225 c 0,0 -30.14546,85.25475 -66.50054,105.29253 -49.1805,27.10675 -168.468039,0 -168.468039,0"
         style="fill:none;fill-rule:evenodd;stroke:#ff0000;stroke-width:2;stroke-linecap:butt;stroke-linejoin:miter;stroke-miterlimit:4;stroke-dasharray:none;stroke-opacity:1;marker-end:url(#marker4457)" />
      <text
         sodipodi:linespacing="125%"
         id="text4655-5-3-7"
         y="695.84473"
         x="-68.542664"
         style="font-style:normal;font-variant:normal;font-weight:normal;font-stretch:normal;font-size:17.5px;line-height:125%;font-family:'DejaVu Serif';-inkscape-font-specification:'DejaVu Serif';letter-spacing:0px;word-spacing:0px;display:inline;fill:#000000;fill-opacity:1;stroke:none;stroke-width:1px;stroke-linecap:butt;stroke-linejoin:miter;stroke-opacity:1"
         xml:space="preserve"><tspan
           style="font-style:normal;font-variant:normal;font-weight:normal;font-stretch:normal;font-size:40px;font-family:'Latin Modern Roman';-inkscape-font-specification:'Latin Modern Roman, ';fill:#ff0000"
           y="695.84473"
           x="-68.542664"
           id="tspan4657-9-6-5"
           sodipodi:role="line">Axônio</tspan></text>
      <path
         sodipodi:nodetypes="cac"
         inkscape:connector-curvature="0"
         id="path4479"
         d="m 181.9583,399.9445 c 0,0 -18.8945,67.86766 2.02653,88.83448 10.44139,10.46424 44.3337,1.10834 44.3337,1.10834"
         style="fill:none;fill-rule:evenodd;stroke:#ff0000;stroke-width:2;stroke-linecap:butt;stroke-linejoin:miter;stroke-miterlimit:4;stroke-dasharray:none;stroke-opacity:1;marker-end:url(#marker4481)" />
      <text
         sodipodi:linespacing="125%"
         id="text4655-5-3-3"
         y="494.32825"
         x="295.46881"
         style="font-style:normal;font-variant:normal;font-weight:normal;font-stretch:normal;font-size:17.5px;line-height:125%;font-family:'DejaVu Serif';-inkscape-font-specification:'DejaVu Serif';letter-spacing:0px;word-spacing:0px;display:inline;fill:#000000;fill-opacity:1;stroke:none;stroke-width:1px;stroke-linecap:butt;stroke-linejoin:miter;stroke-opacity:1"
         xml:space="preserve"><tspan
           style="font-style:normal;font-variant:normal;font-weight:normal;font-stretch:normal;font-size:40px;font-family:'Latin Modern Roman';-inkscape-font-specification:'Latin Modern Roman, ';text-align:center;text-anchor:middle;fill:#ff0000"
           y="494.32825"
           x="295.46881"
           id="tspan4657-9-6-56"
           sodipodi:role="line">Cone</tspan><tspan
           id="tspan4503"
           style="font-style:normal;font-variant:normal;font-weight:normal;font-stretch:normal;font-size:40px;font-family:'Latin Modern Roman';-inkscape-font-specification:'Latin Modern Roman, ';text-align:center;text-anchor:middle;fill:#ff0000"
           y="544.32825"
           x="295.46881"
           sodipodi:role="line">Axonial</tspan></text>
      <path
         sodipodi:nodetypes="cccc"
         inkscape:connector-curvature="0"
         id="path4505"
         d="m 569.68797,643.94691 4.43337,69.82557 0,0 -59.85048,-28.8169"
         style="fill:none;fill-rule:evenodd;stroke:#ff0000;stroke-width:2;stroke-linecap:butt;stroke-linejoin:miter;stroke-miterlimit:4;stroke-dasharray:none;stroke-opacity:1" />
      <path
         inkscape:connector-curvature="0"
         id="path4507"
         d="m 574.07226,713.72591 15.94994,26.93775 c 2.16823,2.70326 5.09235,2.98595 8.34527,2.64755 l 39.18582,0 0.19593,0"
         style="fill:none;fill-rule:evenodd;stroke:#ff0000;stroke-width:2;stroke-linecap:butt;stroke-linejoin:miter;stroke-miterlimit:4;stroke-dasharray:none;stroke-opacity:1;marker-end:url(#marker4509)"
         sodipodi:nodetypes="ccccc" />
      <text
         sodipodi:linespacing="125%"
         id="text4655-5-3-7-2"
         y="750.25983"
         x="639.92334"
         style="font-style:normal;font-variant:normal;font-weight:normal;font-stretch:normal;font-size:17.5px;line-height:125%;font-family:'DejaVu Serif';-inkscape-font-specification:'DejaVu Serif';letter-spacing:0px;word-spacing:0px;display:inline;fill:#000000;fill-opacity:1;stroke:none;stroke-width:1px;stroke-linecap:butt;stroke-linejoin:miter;stroke-opacity:1"
         xml:space="preserve"><tspan
           style="font-style:normal;font-variant:normal;font-weight:normal;font-stretch:normal;font-size:40px;font-family:'Latin Modern Roman';-inkscape-font-specification:'Latin Modern Roman, ';fill:#ff0000"
           y="750.25983"
           x="639.92334"
           id="tspan4657-9-6-5-9"
           sodipodi:role="line"> Terminais</tspan><tspan
           id="tspan4531"
           style="font-style:normal;font-variant:normal;font-weight:normal;font-stretch:normal;font-size:40px;font-family:'Latin Modern Roman';-inkscape-font-specification:'Latin Modern Roman, ';fill:#ff0000"
           y="800.25983"
           x="639.92334"
           sodipodi:role="line" /></text>
    </g>
  </g>
</svg>
